# xmcd
#
# Track frame offsets:
#	182
#	15312
#	33210
#	49150
#	66325
#	81585
#	95627
#	112027
#	125962
#	144395
#	163240
#	184480
#
# Disc length: 2653 seconds
#
# Revision: 2
# Processed by: cddbd v1.5.1PL0 Copyright (c) Steve Scherf et al.
# Submitted via: dBpowerAMP V4.0
#
DISCID=b20a5b0c
DTITLE=Diana Ross - Red Hot Rhythm And Blues
DYEAR=1987
DGENRE=Blues
TTITLE0=Dirty Looks
TTITLE1=Stranger In Paradise
TTITLE2=Shine
TTITLE3=Shockwaves
TTITLE4=Selfish One
TTITLE5=Mr. Lee
TTITLE6=Tell Mama
TTITLE7=There Goes My Baby
TTITLE8=Summertime
TTITLE9=Cross My Heart
TTITLE10=It's Hard For Me To Say
TTITLE11=Tell Me Again
EXTD=077774678728
EXTT0=
EXTT1=
EXTT2=
EXTT3=
EXTT4=
EXTT5=
EXTT6=
EXTT7=
EXTT8=
EXTT9=
EXTT10=
EXTT11=
PLAYORDER=
